HIERARCHY
ROOT joint_Root
{
	OFFSET 0.0 0.0 0.0
	CHANNELS 6 Xposition Yposition Zposition Zrotation Xrotation Yrotation 
	JOINT Hips
	{
		OFFSET 4.5925 91.4895 -427.239
		CHANNELS 6 Xposition Yposition Zposition Zrotation Xrotation Yrotation 
		JOINT Spine
		{
			OFFSET 15.7357 0.0 0.0
			CHANNELS 6 Xposition Yposition Zposition Zrotation Xrotation Yrotation 
			JOINT Chest
			{
				OFFSET 8.98455 -0.406207 0.0
				CHANNELS 6 Xposition Yposition Zposition Zrotation Xrotation Yrotation 
				JOINT Neck
				{
					OFFSET 16.3773 0.0 0.0
					CHANNELS 6 Xposition Yposition Zposition Zrotation Xrotation Yrotation 
					JOINT Head
					{
						OFFSET 6.45672 0.0 0.0
						CHANNELS 6 Xposition Yposition Zposition Zrotation Xrotation Yrotation 
						End Site
						{
							OFFSET 0.0 0.0 0.0
						}
					}
				}
				JOINT Shoulder_L
				{
					OFFSET 12.9942 -0.242716 4.98039
					CHANNELS 6 Xposition Yposition Zposition Zrotation Xrotation Yrotation 
					JOINT UpperArm_L
					{
						OFFSET 5.34809 0.0 0.0
						CHANNELS 6 Xposition Yposition Zposition Zrotation Xrotation Yrotation 
						JOINT LowerArm_L
						{
							OFFSET 24.3286 1.87007e-05 0.0
							CHANNELS 6 Xposition Yposition Zposition Zrotation Xrotation Yrotation 
							JOINT Hand_L
							{
								OFFSET 22.2916 0.0 0.0
								CHANNELS 6 Xposition Yposition Zposition Zrotation Xrotation Yrotation 
								End Site
								{
									OFFSET 0.0 0.0 0.0
								}
							}
						}
					}
				}
				JOINT Shoulder_R
				{
					OFFSET 12.9945 -0.242716 -4.98039
					CHANNELS 6 Xposition Yposition Zposition Zrotation Xrotation Yrotation 
					JOINT UpperArm_R
					{
						OFFSET -5.34813 0.0 0.0
						CHANNELS 6 Xposition Yposition Zposition Zrotation Xrotation Yrotation 
						JOINT LowerArm_R
						{
							OFFSET -24.3289 0.000322201 0.0
							CHANNELS 6 Xposition Yposition Zposition Zrotation Xrotation Yrotation 
							JOINT Hand_R
							{
								OFFSET -22.2915 -0.000108084 0.0
								CHANNELS 6 Xposition Yposition Zposition Zrotation Xrotation Yrotation 
								End Site
								{
									OFFSET 0.0 0.0 0.0
								}
							}
						}
					}
				}
			}
		}
		JOINT UpperLeg_L
		{
			OFFSET -2.19248 -6.46944 0.0
			CHANNELS 6 Xposition Yposition Zposition Zrotation Xrotation Yrotation 
			JOINT LowerLeg_L
			{
				OFFSET 39.0811 0.0 -1.23785e-05
				CHANNELS 6 Xposition Yposition Zposition Zrotation Xrotation Yrotation 
				JOINT Foot_L
				{
					OFFSET 40.9854 0.0 -1.26872e-05
					CHANNELS 6 Xposition Yposition Zposition Zrotation Xrotation Yrotation 
					JOINT Toes_L
					{
						OFFSET 11.7543 0.0 0.0
						CHANNELS 6 Xposition Yposition Zposition Zrotation Xrotation Yrotation 
						End Site
						{
							OFFSET 0.0 0.0 0.0
						}
					}
				}
			}
		}
		JOINT UpperLeg_R
		{
			OFFSET -2.19251 6.46944 0.0
			CHANNELS 6 Xposition Yposition Zposition Zrotation Xrotation Yrotation 
			JOINT LowerLeg_R
			{
				OFFSET -39.0811 -0.00228153 -0.0401928
				CHANNELS 6 Xposition Yposition Zposition Zrotation Xrotation Yrotation 
				JOINT Foot_R
				{
					OFFSET -40.9854 0.0 0.0
					CHANNELS 6 Xposition Yposition Zposition Zrotation Xrotation Yrotation 
					JOINT Toes_R
					{
						OFFSET -11.7543 0.0 0.0
						CHANNELS 6 Xposition Yposition Zposition Zrotation Xrotation Yrotation 
						End Site
						{
							OFFSET 0.0 0.0 0.0
						}
					}
				}
			}
		}
	}
}
MOTION
Frames:	8
Frame Time:	0.0333333
0.000000 0.000000 0.000000 0.000000 0.000000 -0.000000 -3.731280 89.747500 -1.692300 89.390200 -1.214450 12.676200 15.735700 0.000005 -0.000001 88.174100 77.869000 -87.461900 8.984550 -0.406207 -0.000000 16.489500 -0.706949 1.528810 16.377300 -0.000001 -0.000001 7.455310 -4.058350 5.346410 6.456720 -0.000001 -0.000000 -6.153710 -4.426760 10.044400 12.994200 -0.242716 4.980390 -90.684300 2.489090 -74.623700 5.348090 -0.000007 -0.000001 -55.590400 -5.137230 -61.579100 24.328600 0.000019 0.000005 38.303400 -15.701000 -108.912000 22.291600 -0.000001 0.000005 25.715000 5.306330 -0.106189 12.994500 -0.242716 -4.980390 88.899600 12.002300 -84.722700 -5.348130 -0.000001 -0.000004 -55.817600 36.651700 -22.256100 -24.328900 0.000322 -0.000009 1.397060 3.922410 -19.636100 -22.291500 -0.000108 -0.000004 12.294200 5.415610 -3.451790 -2.192480 -6.469440 -0.000000 -172.965000 -9.741280 -1.829390 39.081100 -0.000007 -0.000012 -0.270071 0.368582 36.231900 40.985400 -0.000006 -0.000013 -1.137230 5.510250 -71.355600 11.754300 -0.000000 0.000003 -0.000163 -0.001555 -16.636500 -2.192510 6.469440 -0.000001 176.347000 19.437700 179.871000 -39.081100 -0.002282 -0.040193 -0.218708 0.308049 35.778900 -40.985400 0.000008 0.000006 5.649160 8.921770 -73.218900 -11.754300 -0.000006 -0.000006 -0.002241 -0.031699 -17.862100
0.000000 0.000000 0.000000 0.000000 0.000000 -0.000000 -3.702660 89.744400 -1.672580 89.386800 -1.417990 12.663000 15.735700 0.000005 -0.000001 88.235000 77.888500 -87.520400 8.984550 -0.406207 -0.000000 16.451100 -0.680497 1.529590 16.377300 -0.000001 -0.000001 7.450850 -4.053610 5.366420 6.456720 -0.000001 -0.000000 -6.124740 -4.433980 10.031500 12.994200 -0.242716 4.980390 -90.693400 2.520170 -74.611300 5.348090 -0.000007 -0.000001 -58.087300 -6.477810 -61.362200 24.328600 0.000019 0.000005 38.108200 -15.631200 -108.959000 22.291600 -0.000001 0.000005 25.880500 5.300990 0.044037 12.994500 -0.242716 -4.980390 88.884100 12.032100 -84.661800 -5.348130 -0.000001 -0.000004 -55.887100 36.623600 -21.892800 -24.328900 0.000322 -0.000009 1.409570 4.012720 -19.386800 -22.291500 -0.000108 -0.000004 12.343300 5.414000 -3.398070 -2.192480 -6.469440 -0.000000 -172.960000 -9.840910 -1.798730 39.081100 -0.000007 -0.000012 -0.268885 0.366811 36.243200 40.985400 -0.000006 -0.000013 -1.153310 5.406070 -71.396100 11.754300 -0.000000 0.000003 -0.000154 -0.001482 -16.633900 -2.192510 6.469440 -0.000001 176.351000 19.298600 179.844000 -39.081100 -0.002282 -0.040193 -0.223428 0.314502 35.787200 -40.985400 0.000008 0.000006 5.573640 9.020990 -73.205100 -11.754300 -0.000006 -0.000006 -0.002388 -0.033478 -17.934500
0.000000 0.000000 0.000000 0.000000 0.000000 -0.000000 -3.679850 89.747000 -1.645030 89.359600 -1.492260 12.691000 15.735700 0.000005 -0.000001 88.149900 77.894500 -87.434800 8.984550 -0.406207 -0.000000 16.438200 -0.715597 1.535360 16.377300 -0.000001 -0.000001 7.449950 -4.050360 5.395510 6.456720 -0.000001 -0.000000 -6.148680 -4.408810 10.034800 12.994200 -0.242716 4.980390 -90.688000 2.501740 -74.618000 5.348090 -0.000007 -0.000001 -60.839600 -7.983900 -61.226000 24.328600 0.000019 0.000005 38.388100 -15.737300 -108.899000 22.291600 -0.000001 0.000005 26.113100 5.292700 0.275723 12.994500 -0.242716 -4.980390 88.871100 12.063000 -84.613500 -5.348130 -0.000001 -0.000004 -56.025400 36.481900 -21.513800 -24.328900 0.000322 -0.000009 1.419690 4.111900 -19.079800 -22.291500 -0.000108 -0.000004 12.288800 5.412140 -3.336150 -2.192480 -6.469440 -0.000000 -172.936000 -9.857970 -1.728770 39.081100 -0.000007 -0.000012 -0.266910 0.364193 36.237500 40.985400 -0.000006 -0.000013 -1.164190 5.332730 -71.427500 11.754300 -0.000000 0.000003 -0.000151 -0.001464 -16.633200 -2.192510 6.469440 -0.000001 176.355000 19.272800 179.905000 -39.081100 -0.002282 -0.040193 -0.220691 0.311056 35.756600 -40.985400 0.000008 0.000006 5.577350 9.060090 -73.205100 -11.754300 -0.000006 -0.000006 -0.002338 -0.032871 -17.909800
0.000000 0.000000 0.000000 0.000000 0.000000 -0.000000 -3.660920 89.745300 -1.638490 89.358100 -1.627930 12.663600 15.735700 0.000005 -0.000001 88.121100 77.903700 -87.413700 8.984550 -0.406207 -0.000000 16.419500 -0.727686 1.521760 16.377300 -0.000001 -0.000001 7.414840 -4.032890 5.376120 6.456720 -0.000001 -0.000000 -6.152820 -4.396370 10.021600 12.994200 -0.242716 4.980390 -90.690400 2.509050 -74.610500 5.348090 -0.000007 -0.000001 -63.808000 -9.672290 -61.228300 24.328600 0.000019 0.000005 38.453800 -15.731000 -108.851000 22.291600 -0.000001 0.000005 26.630600 5.276130 0.730564 12.994500 -0.242716 -4.980390 88.868800 12.070800 -84.606000 -5.348130 -0.000001 -0.000004 -56.176700 36.258300 -21.197200 -24.328900 0.000322 -0.000009 1.461440 4.310110 -18.763200 -22.291500 -0.000108 -0.000004 12.268700 5.412100 -3.334690 -2.192480 -6.469440 -0.000000 -172.923000 -9.961750 -1.739680 39.081100 -0.000007 -0.000012 -0.272399 0.371554 36.246900 40.985400 -0.000006 -0.000013 -1.155980 5.318350 -71.442300 11.754300 -0.000000 0.000003 -0.000153 -0.001477 -16.633700 -2.192510 6.469440 -0.000001 176.386000 19.145000 179.854000 -39.081100 -0.002282 -0.040193 -0.220506 0.310653 35.769300 -40.985400 0.000008 0.000006 5.561300 9.071640 -73.199900 -11.754300 -0.000006 -0.000006 -0.002390 -0.033499 -17.935300
0.000000 0.000000 0.000000 0.000000 0.000000 -0.000000 -3.641350 89.743300 -1.637870 89.343200 -1.695480 12.677500 15.735700 0.000005 -0.000001 88.077100 77.909900 -87.375300 8.984550 -0.406207 -0.000000 16.406500 -0.746081 1.512960 16.377300 -0.000001 -0.000001 7.402860 -4.051540 5.370210 6.456720 -0.000001 -0.000000 -6.167970 -4.404370 9.992170 12.994200 -0.242716 4.980390 -90.695700 2.533650 -74.640400 5.348090 -0.000007 -0.000001 -66.866600 -11.425300 -61.374800 24.328600 0.000019 0.000005 39.081800 -15.839300 -108.576000 22.291600 -0.000001 0.000005 27.551900 5.250250 1.424670 12.994500 -0.242716 -4.980390 88.854500 12.091600 -84.547600 -5.348130 -0.000001 -0.000004 -56.194700 36.222300 -20.945800 -24.328900 0.000322 -0.000009 1.430810 4.273680 -18.542600 -22.291500 -0.000108 -0.000004 12.333300 5.409960 -3.264060 -2.192480 -6.469440 -0.000000 -172.913000 -10.009200 -1.711520 39.081100 -0.000007 -0.000012 -0.269404 0.367233 36.264500 40.985400 -0.000006 -0.000013 -1.145580 5.292110 -71.469500 11.754300 -0.000000 0.000003 -0.000165 -0.001571 -16.637100 -2.192510 6.469440 -0.000001 176.387000 19.095200 179.860000 -39.081100 -0.002282 -0.040193 -0.222605 0.313513 35.774000 -40.985400 0.000008 0.000006 5.536400 9.095520 -73.191100 -11.754300 -0.000006 -0.000006 -0.002389 -0.033483 -17.934600
0.000000 0.000000 0.000000 0.000000 0.000000 -0.000000 -3.619320 89.738300 -1.637380 89.341600 -1.719470 12.675800 15.735700 0.000005 -0.000001 87.990900 77.918400 -87.299200 8.984550 -0.406207 -0.000000 16.388700 -0.782215 1.497710 16.377300 -0.000001 -0.000001 7.392100 -4.052550 5.362260 6.456720 -0.000001 -0.000000 -6.172130 -4.409670 9.960940 12.994200 -0.242716 4.980390 -90.688800 2.509860 -74.647800 5.348090 -0.000007 -0.000001 -70.292600 -13.249600 -61.689900 24.328600 0.000019 0.000005 39.569300 -15.841400 -108.280000 22.291600 -0.000001 0.000005 28.406400 5.227750 2.012450 12.994500 -0.242716 -4.980390 88.848800 12.101000 -84.524300 -5.348130 -0.000001 -0.000004 -56.212900 36.130700 -20.727700 -24.328900 0.000322 -0.000009 1.448500 4.369480 -18.373200 -22.291500 -0.000108 -0.000004 12.294500 5.410400 -3.278340 -2.192480 -6.469440 -0.000000 -172.922000 -10.034000 -1.728240 39.081100 -0.000007 -0.000012 -0.268136 0.365099 36.294800 40.985400 -0.000006 -0.000013 -1.137190 5.268870 -71.483900 11.754300 -0.000000 0.000003 -0.000144 -0.001402 -16.630900 -2.192510 6.469440 -0.000001 176.385000 19.053700 179.842000 -39.081100 -0.002282 -0.040193 -0.224882 0.316485 35.790200 -40.985400 0.000008 0.000006 5.450340 9.104190 -73.176200 -11.754300 -0.000006 -0.000006 -0.002412 -0.033756 -17.945800
0.000000 0.000000 0.000000 0.000000 0.000000 -0.000000 -3.600150 89.742000 -1.639030 89.325700 -1.771260 12.695200 15.735700 0.000005 -0.000001 88.001600 77.924500 -87.314200 8.984550 -0.406207 -0.000000 16.376400 -0.777759 1.488390 16.377300 -0.000001 -0.000001 7.408370 -4.053630 5.360180 6.456720 -0.000001 -0.000000 -6.179670 -4.424560 9.924440 12.994200 -0.242716 4.980390 -90.685100 2.497420 -74.655200 5.348090 -0.000007 -0.000001 -73.756300 -15.032500 -62.135900 24.328600 0.000019 0.000005 39.645600 -15.712800 -108.099000 22.291600 -0.000001 0.000005 29.017200 5.196040 2.816550 12.994500 -0.242716 -4.980390 88.846900 12.101600 -84.516000 -5.348130 -0.000001 -0.000004 -56.184300 36.091300 -20.534800 -24.328900 0.000322 -0.000009 1.444790 4.371750 -18.320400 -22.291500 -0.000108 -0.000004 12.232600 5.411820 -3.325600 -2.192480 -6.469440 -0.000000 -172.915000 -10.027000 -1.688640 39.081100 -0.000007 -0.000012 -0.268007 0.365062 36.284500 40.985400 -0.000006 -0.000013 -1.132210 5.247110 -71.494600 11.754300 -0.000000 0.000003 -0.000162 -0.001553 -16.636500 -2.192510 6.469440 -0.000001 176.389000 19.027400 179.865000 -39.081100 -0.002282 -0.040193 -0.220796 0.310928 35.780500 -40.985400 0.000008 0.000006 5.531760 9.118660 -73.184500 -11.754300 -0.000006 -0.000006 -0.002339 -0.032886 -17.910400
0.000000 0.000000 0.000000 0.000000 0.000000 -0.000000 -3.588830 89.746800 -1.641630 89.322200 -1.786990 12.704100 15.735700 0.000005 -0.000001 87.996300 77.933300 -87.326700 8.984550 -0.406207 -0.000000 16.358800 -0.780778 1.453290 16.377300 -0.000001 -0.000001 7.449140 -4.048620 5.361360 6.456720 -0.000001 -0.000000 -6.185010 -4.412460 9.971450 12.994200 -0.242716 4.980390 -90.684300 2.484370 -74.595600 5.348090 -0.000007 -0.000001 -76.952800 -16.587200 -62.716700 24.328600 0.000019 0.000005 39.490100 -15.455900 -107.921000 22.291600 -0.000001 0.000005 29.901000 5.169490 3.471700 12.994500 -0.242716 -4.980390 88.845600 12.128100 -84.521500 -5.348130 -0.000001 -0.000004 -56.163400 36.009500 -20.383400 -24.328900 0.000322 -0.000009 1.466370 4.436340 -18.323600 -22.291500 -0.000108 -0.000004 12.255100 5.410430 -3.279490 -2.192480 -6.469440 -0.000000 -172.906000 -10.053900 -1.667820 39.081100 -0.000007 -0.000012 -0.272127 0.370936 36.265200 40.985400 -0.000006 -0.000013 -1.122230 5.259830 -71.485300 11.754300 -0.000000 0.000003 -0.000149 -0.001448 -16.632600 -2.192510 6.469440 -0.000001 176.395000 18.993900 179.874000 -39.081100 -0.002282 -0.040193 -0.221772 0.312521 35.759700 -40.985400 0.000008 0.000006 5.511910 9.101280 -73.161700 -11.754300 -0.000006 -0.000006 -0.002394 -0.033541 -17.937000
